osimModel_states
nRows=41
nColumns=17

# SIMM Motion File Header:
name osimModel_states
datacolumns 17
datarows 41
otherdata 1
range 1.46560305 1.64104044
endheader
time	blockToGround_xTranslation	blockToGround_yTranslation	blockToGround_zTranslation	blockToGround_xRotation	blockToGround_yRotation	blockToGround_zRotation	blockToGround_xTranslation_u	blockToGround_yTranslation_u	blockToGround_zTranslation_u	blockToGround_xRotation_u	blockToGround_yRotation_u	blockToGround_zRotation_u	muscle1.activation	muscle1.fiber_length	muscle2.activation	muscle2.fiber_length
      1.46560305	      0.00011124	     -0.00000713	     -0.12107697	     -0.24846228	      0.02664136	      0.03124463	     -0.00085568	     -0.00084037	     -0.04308317	      5.80816507	      0.09747113	      0.06522860	      0.89466120	     -0.02316802	      0.00000000	      0.21957187
      1.47001692	      0.00010757	     -0.00007615	     -0.12127436	     -0.21780426	      0.02721247	      0.03081075	     -0.00079780	     -0.02913600	     -0.04599820	      8.13037470	      0.16558509	     -0.28667632	      0.89237978	     -0.02335180	      0.00000000	      0.21976282
      1.47389988	      0.00010470	     -0.00021586	     -0.12145250	     -0.18244280	      0.02804213	      0.02881243	     -0.00064892	     -0.03883112	     -0.04479883	      9.72133937	      0.26122382	     -0.75326935	      0.88948529	     -0.02352025	      0.00000000	      0.21993308
      1.47778284	      0.00010279	     -0.00034131	     -0.12161387	     -0.14689688	      0.02924388	      0.02509306	     -0.00030390	     -0.02174151	     -0.03746262	      8.07892294	      0.34749899	     -1.13826940	      0.88658916	     -0.02368364	      0.00000000	      0.22009749
      1.48214171	      0.00010262	     -0.00035813	     -0.12175303	     -0.12002912	      0.03090768	      0.01950688	      0.00022931	      0.01461070	     -0.02663092	      4.21427689	      0.40133232	     -1.40353173	      0.88418674	     -0.02383973	      0.00000000	      0.22024391
      1.48768453	      0.00010539	     -0.00018806	     -0.12187881	     -0.10536335	      0.03318073	      0.01109741	      0.00070733	      0.03895793	     -0.02066911	      1.79064326	      0.40565322	     -1.61575368	      0.88185265	     -0.02398486	      0.00000000	      0.22037813
      1.49322735	      0.00010980	     -0.00002930	     -0.12200094	     -0.09286347	      0.03541471	      0.00184035	      0.00084706	      0.01147985	     -0.02448875	      3.01230417	      0.39242254	     -1.69350145	      0.87815525	     -0.02410221	      0.00000000	      0.22048373
      1.49727027	      0.00011328	     -0.00004938	     -0.12210930	     -0.07859235	      0.03696698	     -0.00489536	      0.00087496	     -0.02095956	     -0.02894295	      4.01450788	      0.36605532	     -1.61731539	      0.87374881	     -0.02419422	      0.00000000	      0.22059844
      1.50212229	      0.00011767	     -0.00020980	     -0.12225439	     -0.05917746	      0.03857841	     -0.01206032	      0.00093674	     -0.03874591	     -0.02952563	      3.34125108	      0.28624008	     -1.29930222	      0.86683622	     -0.02432028	      0.00000000	      0.22071747
      1.50697431	      0.00012224	     -0.00035536	     -0.12238254	     -0.05230935	      0.03970325	     -0.01728685	      0.00091734	     -0.01544020	     -0.02259021	     -0.80188552	      0.17322913	     -0.84476223	      0.85948572	     -0.02444483	      0.00000000	      0.22089290
      1.51168311	      0.00012615	     -0.00033506	     -0.12247633	     -0.06427619	      0.04028630	     -0.02015202	      0.00072772	      0.02323453	     -0.01844359	     -3.79213866	      0.07947979	     -0.36465389	      0.85248507	     -0.02454262	      0.00000000	      0.22090515
      1.51588007	      0.00012880	     -0.00019464	     -0.12255357	     -0.08162054	      0.04049654	     -0.02070382	      0.00053751	      0.03878718	     -0.01863900	     -4.21401140	      0.02187018	      0.10697626	      0.84558302	     -0.02461425	      0.00000000	      0.22108980
      1.52007703	      0.00013074	     -0.00005549	     -0.12263713	     -0.09755384	      0.04047001	     -0.01921780	      0.00039794	      0.02277251	     -0.02163116	     -3.17968358	     -0.03256301	      0.58651117	      0.83756961	     -0.02468427	      0.00000000	      0.22106892
      1.52427400	      0.00013224	     -0.00002716	     -0.12273606	     -0.10797175	      0.04023507	     -0.01606504	      0.00032260	     -0.00993110	     -0.02537480	     -1.81790764	     -0.07539871	      0.89525586	      0.82809497	     -0.02476106	      0.00000000	      0.22125141
      1.52786249	      0.00013324	     -0.00010864	     -0.12283190	     -0.11226905	      0.03989443	     -0.01243329	      0.00021340	     -0.03339092	     -0.02760120	     -0.62778894	     -0.11164700	      1.13155726	      0.81888476	     -0.02483631	      0.00000000	      0.22128072
      1.53145099	      0.00013357	     -0.00024259	     -0.12292888	     -0.11413186	      0.03942455	     -0.00803551	     -0.00005495	     -0.03726594	     -0.02571115	     -0.70350729	     -0.14136648	      1.29204140	      0.80902681	     -0.02491680	      0.00000000	      0.22139426
      1.53657123	      0.00013196	     -0.00036679	     -0.12304292	     -0.12229766	      0.03867244	     -0.00133185	     -0.00055985	     -0.00604616	     -0.01889351	     -2.43497837	     -0.13900168	      1.30111432	      0.79488305	     -0.02502174	      0.00000000	      0.22149062
      1.54030849	      0.00012944	     -0.00033069	     -0.12310784	     -0.13181756	      0.03818034	      0.00345646	     -0.00076395	      0.02423101	     -0.01628014	     -2.43103008	     -0.11799938	      1.25603184	      0.78449739	     -0.02508169	      0.00000000	      0.22158162
      1.54404574	      0.00012639	     -0.00020614	     -0.12316750	     -0.13901910	      0.03776666	      0.00799309	     -0.00085118	      0.03855121	     -0.01590386	     -1.27644439	     -0.09809270	      1.16181084	      0.77364652	     -0.02513136	      0.00000000	      0.22162996
      1.54797219	      0.00012298	     -0.00007003	     -0.12323165	     -0.14022415	      0.03741161	      0.01223978	     -0.00087901	      0.02652280	     -0.01704071	      0.74409429	     -0.07759780	      0.99706323	      0.76146146	     -0.02517888	      0.00000000	      0.22169665
      1.55189863	      0.00011952	     -0.00001980	     -0.12330299	     -0.13371487	      0.03713680	      0.01583560	     -0.00088428	     -0.00211024	     -0.01935991	      2.46349557	     -0.05748049	      0.83405840	      0.74825267	     -0.02522762	      0.00000000	      0.22176023
      1.55580281	      0.00011608	     -0.00008499	     -0.12338233	     -0.12114514	      0.03696403	      0.01868206	     -0.00087328	     -0.02977321	     -0.02093909	      3.98595890	     -0.02286037	      0.59713469	      0.73406184	     -0.02528112	      0.00000000	      0.22183707
      1.55970699	      0.00011281	     -0.00022652	     -0.12346147	     -0.10412378	      0.03697965	      0.02033864	     -0.00077511	     -0.03815214	     -0.01882433	      4.35682993	      0.03297545	      0.24974208	      0.71916719	     -0.02533773	      0.00000000	      0.22191354
      1.56361117	      0.00011023	     -0.00034626	     -0.12352492	     -0.08942317	      0.03719748	      0.02068395	     -0.00053350	     -0.01930980	     -0.01362396	      3.09934263	      0.07411715	     -0.06830990	      0.70418421	     -0.02538759	      0.00000000	      0.22198100
      1.56697004	      0.00010881	     -0.00036477	     -0.12356531	     -0.08022115	      0.03746877	      0.02000284	     -0.00031991	      0.00879631	     -0.01082218	      2.52360968	      0.08361545	     -0.33903766	      0.69128147	     -0.02541857	      0.00000000	      0.22202378
      1.57032892	      0.00010801	     -0.00029260	     -0.12360000	     -0.07160139	      0.03774968	      0.01839800	     -0.00016134	      0.03215775	     -0.01003885	      2.67523058	      0.08202620	     -0.61517747	      0.67806566	     -0.02544002	      0.00000000	      0.22205924
      1.57552110	      0.00010766	     -0.00010333	     -0.12365254	     -0.05605400	      0.03818231	      0.01417590	      0.00001030	      0.03264891	     -0.01046926	      3.38040975	      0.08471360	     -0.99949800	      0.65661999	     -0.02546371	      0.00000000	      0.22211014
      1.58273997	      0.00010807	     -0.00005333	     -0.12373716	     -0.02692672	      0.03884781	      0.00560619	      0.00010241	     -0.02106068	     -0.01279297	      4.46550786	      0.09643634	     -1.31671496	      0.62422649	     -0.02549422	      0.00000000	      0.22218651
      1.58810023	      0.00010912	     -0.00023106	     -0.12380338	     -0.00503063	      0.03935036	     -0.00146758	      0.00031700	     -0.03738030	     -0.01122598	      3.35240774	      0.08567199	     -1.27557340	      0.59847269	     -0.02551923	      0.00000000	      0.22226968
      1.59248206	      0.00011091	     -0.00035419	     -0.12384790	      0.00627883	      0.03967540	     -0.00669064	      0.00047863	     -0.01436212	     -0.00945342	      1.90961091	      0.06218451	     -1.09741122	      0.57681707	     -0.02553333	      0.00000000	      0.22228001
      1.59569699	      0.00011251	     -0.00035735	     -0.12387788	      0.01142574	      0.03984911	     -0.00995797	      0.00050989	      0.01247260	     -0.00926919	      1.31753515	      0.04665682	     -0.92802051	      0.56047117	     -0.02553857	      0.00000000	      0.22233269
      1.59891192	      0.00011416	     -0.00028076	     -0.12390806	      0.01495438	      0.03997886	     -0.01261207	      0.00051364	      0.03312383	     -0.00951879	      0.88499029	      0.03503441	     -0.71575809	      0.54364175	     -0.02554126	      0.00000000	      0.22235863
      1.60573146	      0.00011763	     -0.00005461	     -0.12397471	      0.01818964	      0.04016013	     -0.01562517	      0.00050142	      0.02082952	     -0.00994552	      0.08536549	      0.02028797	     -0.14736079	      0.50627757	     -0.02554260	      0.00000000	      0.22243013
      1.61176542	      0.00012063	     -0.00007350	     -0.12403450	      0.01679925	      0.04026641	     -0.01485156	      0.00050078	     -0.02597564	     -0.01002917	     -0.50141877	      0.01705506	      0.40184369	      0.47143485	     -0.02554011	      0.00000000	      0.22241675
      1.61506913	      0.00012232	     -0.00018361	     -0.12406709	      0.01480861	      0.04032299	     -0.01305107	      0.00052839	     -0.03765494	     -0.00970051	     -0.67624538	      0.01688148	      0.68471851	      0.45167325	     -0.02553650	      0.00000000	      0.22252675
      1.61919942	      0.00012473	     -0.00032272	     -0.12410727	      0.01208370	      0.04039247	     -0.00953032	      0.00066066	     -0.02494018	     -0.00981397	     -0.59209732	      0.01595958	      1.01448209	      0.42630873	     -0.02552927	      0.00000000	      0.22253873
      1.62332971	      0.00012783	     -0.00036140	     -0.12414734	      0.00998918	      0.04045167	     -0.00478604	      0.00084003	      0.00751966	     -0.00945343	     -0.42869163	      0.01192147	      1.26324295	      0.40019505	     -0.02551859	      0.00000000	      0.22260394
      1.62746000	      0.00013183	     -0.00026911	     -0.12418549	      0.00876496	      0.04049315	      0.00080259	      0.00111555	      0.03399280	     -0.00900821	     -0.14863397	      0.00765483	      1.42804087	      0.37341045	     -0.02550393	      0.00000000	      0.22261624
      1.63159029	      0.00013704	     -0.00011906	     -0.12422063	      0.00862463	      0.04051473	      0.00681299	      0.00140444	      0.03352730	     -0.00786629	      0.06482761	      0.00187103	      1.45699944	      0.34600154	     -0.02548390	      0.00000000	      0.22267570
      1.63766202	      0.00014653	     -0.00003335	     -0.12425987	      0.00915363	      0.04047468	      0.01500012	      0.00172574	     -0.00938816	     -0.00520401	      0.06856527	     -0.01809336	      1.19144989	      0.30485728	     -0.02544040	      0.00000000	      0.22259345
      1.64104044	      0.00015295	     -0.00010636	     -0.12427382	      0.00944493	      0.04038568	      0.01871904	      0.00218688	     -0.03177643	     -0.00308343	      0.15226495	     -0.03500321	      1.04706358	      0.28158404	     -0.02540568	      0.00000000	      0.22275307
